# Blender 4.0.2
# www.blender.org
o Plane
v 1.110000 0.000000 -0.080000
v 1.110000 0.050000 -0.080000
v 1.169493 0.000000 -0.080000
v 1.169493 0.050000 -0.080000
v 0.080000 0.000000 -1.830000
v 0.080000 0.050000 -1.830000
v 0.080000 0.000000 -1.886848
v 0.080000 0.050000 -1.886848
v 1.110000 0.000000 -1.698073
v 1.110000 0.050000 -1.698073
v 1.169493 0.000000 -1.750635
v 1.169493 0.050000 -1.750635
v 0.979043 0.000000 -1.830000
v 0.979043 0.050000 -1.830000
v 1.030971 0.000000 -1.886848
v 1.030971 0.050000 -1.886848
v -1.110000 0.000000 -0.080000
v -1.110000 0.050000 -0.080000
v -1.169493 0.000000 -0.080000
v -1.169493 0.050000 -0.080000
v -0.080000 0.000000 -1.830000
v -0.080000 0.050000 -1.830000
v -0.080000 0.000000 -1.886848
v -0.080000 0.050000 -1.886848
v -1.110000 0.000000 -1.698073
v -1.110000 0.050000 -1.698073
v -1.169493 0.000000 -1.750635
v -1.169493 0.050000 -1.750635
v -0.979043 0.000000 -1.830000
v -0.979043 0.050000 -1.830000
v -1.030971 0.000000 -1.886848
v -1.030971 0.050000 -1.886848
v 1.110000 0.000000 0.080000
v 1.110000 0.050000 0.080000
v 1.169493 0.000000 0.080000
v 1.169493 0.050000 0.080000
v 0.080000 0.000000 1.830000
v 0.080000 0.050000 1.830000
v 0.080000 0.000000 1.886848
v 0.080000 0.050000 1.886848
v 1.110000 0.000000 1.698073
v 1.110000 0.050000 1.698073
v 1.169493 0.000000 1.750635
v 1.169493 0.050000 1.750635
v 0.979043 0.000000 1.830000
v 0.979043 0.050000 1.830000
v 1.030971 0.000000 1.886848
v 1.030971 0.050000 1.886848
v -1.110000 0.000000 0.080000
v -1.110000 0.050000 0.080000
v -1.169493 0.000000 0.080000
v -1.169493 0.050000 0.080000
v -0.080000 0.000000 1.830000
v -0.080000 0.050000 1.830000
v -0.080000 0.000000 1.886848
v -0.080000 0.050000 1.886848
v -1.110000 0.000000 1.698073
v -1.110000 0.050000 1.698073
v -1.169493 0.000000 1.750635
v -1.169493 0.050000 1.750635
v -0.979043 0.000000 1.830000
v -0.979043 0.050000 1.830000
v -1.030971 0.000000 1.886848
v -1.030971 0.050000 1.886848
vn -0.6621 -0.0000 -0.7494
vn -1.0000 -0.0000 -0.0000
vn -0.0000 1.0000 -0.0000
vn -0.0000 -1.0000 -0.0000
vn -0.0000 -0.0000 -1.0000
vn -0.0000 -0.0000 1.0000
vn 1.0000 -0.0000 -0.0000
vn 0.7383 -0.0000 0.6744
vn 0.6621 -0.0000 -0.7494
vn -0.7383 -0.0000 0.6744
vn -0.6621 -0.0000 0.7494
vn 0.7383 -0.0000 -0.6744
vn 0.6621 -0.0000 0.7494
vn -0.7383 -0.0000 -0.6744
vt 0.561011 0.579934
vt 0.594857 0.579934
vt 0.594857 0.616214
vt 0.561011 0.616214
vt 0.514347 0.632369
vt 0.493319 0.632369
vt 0.493319 0.598523
vt 0.514347 0.598523
vt 0.000000 0.598523
vt 0.000000 0.000000
vt 0.036281 0.000000
vt 0.036281 0.617966
vt 0.915889 0.548266
vt 0.915889 0.000000
vt 0.936916 0.000000
vt 0.936916 0.579934
vt 0.594857 0.000000
vt 0.594857 0.579934
vt 0.561011 0.579934
vt 0.561011 0.000000
vt 0.628702 0.548266
vt 0.594857 0.548266
vt 0.594857 0.000000
vt 0.628702 0.000000
vt 0.072561 0.000000
vt 0.072561 0.598523
vt 0.324090 0.000000
vt 0.324090 0.617966
vt 0.290245 0.617966
vt 0.290245 0.000000
vt 0.459474 0.598523
vt 0.425628 0.598523
vt 0.425628 -0.000000
vt 0.459473 -0.000000
vt 0.628702 0.579934
vt 0.831777 0.579934
vt 0.831777 0.031668
vt 0.852805 0.000000
vt 0.852805 0.579934
vt 0.594857 0.616215
vt 0.594857 0.579934
vt 0.628702 0.579934
vt 0.628702 0.616215
vt 0.535375 0.598523
vt 0.535375 0.632369
vt 0.108842 0.598523
vt 0.072561 0.617966
vt 0.108842 0.000000
vt 0.852805 0.031668
vt 0.873833 0.000000
vt 0.873833 0.579934
vt 0.852805 0.579934
vt 0.662548 0.579934
vt 0.628702 0.579934
vt 0.628702 0.000000
vt 0.662548 0.000000
vt 0.696394 0.031668
vt 0.696394 0.579934
vt 0.662548 0.579934
vt 0.662548 0.031668
vt 0.145122 0.000000
vt 0.145122 0.617966
vt 0.357936 0.617966
vt 0.324090 0.617966
vt 0.324090 -0.000000
vt 0.357936 -0.000000
vt 0.493319 0.000000
vt 0.493319 0.598523
vt 0.459474 0.598523
vt 0.459474 0.000000
vt 0.662548 0.000000
vt 0.696394 0.000000
vt 0.957944 0.000000
vt 0.957944 0.579934
vt 0.936916 0.548266
vt 0.425628 0.634804
vt 0.425628 0.598523
vt 0.459473 0.598523
vt 0.459473 0.634804
vt 0.556403 0.598523
vt 0.556403 0.632369
vt 0.145122 0.019443
vt 0.181403 0.000000
vt 0.181403 0.617966
vt 0.894861 0.548266
vt 0.873833 0.579934
vt 0.873833 0.000000
vt 0.894861 0.000000
vt 0.730240 0.579934
vt 0.696394 0.579934
vt 0.696394 0.000000
vt 0.730240 0.000000
vt 0.764085 0.031668
vt 0.764085 0.579934
vt 0.730240 0.031668
vt 0.217684 0.617966
vt 0.217684 0.019443
vt 0.391782 0.617966
vt 0.357936 0.617966
vt 0.357936 -0.000000
vt 0.391782 -0.000000
vt 0.527165 0.000000
vt 0.527165 0.598523
vt 0.493319 0.598523
vt 0.493319 0.000000
vt 0.730240 0.000000
vt 0.764085 0.000000
vt 0.978972 0.579934
vt 0.957944 0.579934
vt 0.957944 -0.000000
vt 0.978972 0.031668
vt 0.459473 0.598523
vt 0.493319 0.634804
vt 0.459473 0.634804
vt 0.649730 0.613780
vt 0.628702 0.613780
vt 0.649730 0.579934
vt 0.253964 0.019443
vt 0.253964 0.617966
vt 0.217684 0.000000
vt 1.000000 0.031668
vt 1.000000 0.579934
vt 0.978972 -0.000000
vt 0.797931 0.000000
vt 0.797931 0.579934
vt 0.764085 0.579934
vt 0.764085 0.000000
vt 0.831777 0.548266
vt 0.797931 0.548266
vt 0.797931 0.000000
vt 0.831777 0.000000
vt 0.290245 0.000000
vt 0.290245 0.617966
vt 0.425628 0.000000
vt 0.425628 0.617966
vt 0.391782 0.617966
vt 0.391782 0.000000
vt 0.561011 0.598523
vt 0.527165 0.000000
vt 0.831777 0.579934
vt 0.797931 0.579934
vt 0.894861 0.579934
s 0
f 12/1/1 11/2/1 9/3/1 10/4/1
f 7/5/2 5/6/2 6/7/2 8/8/2
f 10/9/3 2/10/3 4/11/3 12/12/3
f 13/13/4 5/14/4 7/15/4 15/16/4
f 15/17/5 7/18/5 8/19/5 16/20/5
f 13/21/6 14/22/6 6/23/6 5/24/6
f 1/25/4 9/26/4 11/12/4 3/11/4
f 3/27/7 11/28/7 12/29/7 4/30/7
f 1/31/2 2/32/2 10/33/2 9/34/2
f 14/22/8 13/21/8 15/35/8 16/18/8
f 6/36/3 14/37/3 16/38/3 8/39/3
f 28/40/9 26/41/9 25/42/9 27/43/9
f 23/5/7 24/8/7 22/44/7 21/45/7
f 26/46/3 28/47/3 20/25/3 18/48/3
f 29/49/4 31/50/4 23/51/4 21/52/4
f 31/53/5 32/54/5 24/55/5 23/56/5
f 29/57/6 21/58/6 22/59/6 30/60/6
f 17/48/4 19/61/4 27/62/4 25/46/4
f 19/63/2 20/64/2 28/65/2 27/66/2
f 17/67/7 25/68/7 26/69/7 18/70/7
f 30/60/10 32/71/10 31/72/10 29/57/10
f 22/15/3 24/73/3 32/74/3 30/75/3
f 44/76/11 42/77/11 41/78/11 43/79/11
f 39/45/2 40/44/2 38/80/2 37/81/2
f 42/82/3 44/83/3 36/84/3 34/62/3
f 45/85/4 47/86/4 39/87/4 37/88/4
f 47/89/6 48/90/6 40/91/6 39/92/6
f 45/93/5 37/94/5 38/89/5 46/95/5
f 33/96/4 35/84/4 43/83/4 41/97/4
f 35/98/7 36/99/7 44/100/7 43/101/7
f 33/102/2 41/103/2 42/104/2 34/105/2
f 46/95/12 48/106/12 47/107/12 45/93/12
f 38/108/3 40/109/3 48/110/3 46/111/3
f 60/112/13 59/7/13 57/113/13 58/114/13
f 55/115/7 53/116/7 54/35/7 56/117/7
f 58/118/3 50/119/3 52/96/3 60/120/3
f 61/121/4 53/122/4 55/108/4 63/123/4
f 63/124/6 55/125/6 56/126/6 64/127/6
f 61/128/5 62/129/5 54/130/5 53/131/5
f 49/119/4 57/118/4 59/132/4 51/133/4
f 51/134/2 59/135/2 60/136/2 52/137/2
f 49/138/7 50/103/7 58/139/7 57/20/7
f 62/129/14 61/128/14 63/140/14 64/141/14
f 54/14/3 62/13/3 64/142/3 56/88/3
