# Blender 4.0.2
# www.blender.org
o Plane
v -0.525000 0.028000 0.984821
v -0.525000 0.000000 0.050000
v -0.050000 0.000000 1.050000
v -0.525000 0.000000 0.984821
v -0.525000 0.028000 0.050000
v -0.485435 0.028000 1.076000
v -0.551000 0.000000 0.050000
v -0.050000 0.028000 1.050000
v -0.551000 0.028000 0.050000
v -0.485435 0.000000 1.076000
v -0.460024 0.028000 1.050000
v -0.050000 0.000000 1.076000
v -0.460024 0.000000 1.050000
v -0.050000 0.028000 1.076000
v -0.551000 0.000000 1.010534
v -0.551000 0.028000 1.010534
v -0.525000 0.028000 -0.984821
v -0.525000 0.000000 -0.050000
v -0.050000 0.000000 -1.050000
v -0.525000 0.000000 -0.984821
v -0.525000 0.028000 -0.050000
v -0.485435 0.028000 -1.076000
v -0.551000 0.000000 -0.050000
v -0.050000 0.028000 -1.050000
v -0.551000 0.028000 -0.050000
v -0.485435 0.000000 -1.076000
v -0.460024 0.028000 -1.050000
v -0.050000 0.000000 -1.076000
v -0.460024 0.000000 -1.050000
v -0.050000 0.028000 -1.076000
v -0.551000 0.000000 -1.010534
v -0.551000 0.028000 -1.010534
v 0.525000 0.028000 0.984821
v 0.525000 0.000000 0.050000
v 0.050000 0.000000 1.050000
v 0.525000 0.000000 0.984821
v 0.525000 0.028000 0.050000
v 0.485435 0.028000 1.076000
v 0.551000 0.000000 0.050000
v 0.050000 0.028000 1.050000
v 0.551000 0.028000 0.050000
v 0.485435 0.000000 1.076000
v 0.460024 0.028000 1.050000
v 0.050000 0.000000 1.076000
v 0.460024 0.000000 1.050000
v 0.050000 0.028000 1.076000
v 0.551000 0.000000 1.010534
v 0.551000 0.028000 1.010534
v 0.525000 0.028000 -0.984821
v 0.525000 0.000000 -0.050000
v 0.050000 0.000000 -1.050000
v 0.525000 0.000000 -0.984821
v 0.525000 0.028000 -0.050000
v 0.485435 0.028000 -1.076000
v 0.551000 0.000000 -0.050000
v 0.050000 0.028000 -1.050000
v 0.551000 0.028000 -0.050000
v 0.485435 0.000000 -1.076000
v 0.460024 0.028000 -1.050000
v 0.050000 0.000000 -1.076000
v 0.460024 0.000000 -1.050000
v 0.050000 0.028000 -1.076000
v 0.551000 0.000000 -1.010534
v 0.551000 0.028000 -1.010534
vn -0.7152 -0.0000 -0.6990
vn 0.7032 -0.0000 0.7110
vn -0.0000 -1.0000 -0.0000
vn -0.0000 -0.0000 -1.0000
vn -0.0000 1.0000 -0.0000
vn -1.0000 -0.0000 -0.0000
vn -0.0000 -0.0000 1.0000
vn 1.0000 -0.0000 -0.0000
vn -0.7152 -0.0000 0.6990
vn 0.7032 -0.0000 -0.7110
vn 0.7152 -0.0000 -0.6990
vn -0.7032 -0.0000 0.7110
vn 0.7152 -0.0000 0.6990
vn -0.7032 -0.0000 -0.7110
vt 0.476819 0.482477
vt 0.476819 0.453326
vt 0.449751 0.453326
vt 0.449751 0.482477
vt 0.503887 0.453326
vt 0.476819 0.453326
vt 0.476819 0.482477
vt 0.503887 0.482477
vt 0.566353 0.000000
vt 0.566353 0.453326
vt 0.593421 0.426871
vt 0.593421 0.000000
vt 0.812049 0.426871
vt 0.812049 -0.000000
vt 0.782899 -0.000000
vt 0.782899 0.426871
vt 0.620489 0.453326
vt 0.620489 0.000000
vt 0.251944 1.000000
vt 0.251944 -0.000000
vt 0.224875 0.026770
vt 0.224875 1.000000
vt 0.029150 1.000000
vt 0.029150 -0.000000
vt 0.000000 -0.000000
vt 0.000000 1.000000
vt 0.449751 0.000000
vt 0.449751 0.453326
vt 0.478901 0.453326
vt 0.478901 0.000000
vt 0.449751 0.511627
vt 0.476819 0.511627
vt 0.333149 -0.000000
vt 0.333149 0.973230
vt 0.362299 0.973230
vt 0.362299 -0.000000
vt 0.476819 0.511627
vt 0.503887 0.511627
vt 0.503887 0.482477
vt 0.476819 0.482477
vt 0.116602 0.000000
vt 0.116602 0.973230
vt 0.143670 1.000000
vt 0.143670 0.000000
vt 0.530956 0.482477
vt 0.530956 0.453326
vt 0.503887 0.453326
vt 0.503887 0.482477
vt 0.503887 0.511627
vt 0.530956 0.511627
vt 0.530956 0.482477
vt 0.647557 0.000000
vt 0.620489 0.426871
vt 0.647557 0.453326
vt 0.841200 -0.000000
vt 0.812049 -0.000000
vt 0.812049 0.426871
vt 0.841200 0.426871
vt 0.674626 0.000000
vt 0.674626 0.426871
vt 0.170739 0.000000
vt 0.143670 0.000000
vt 0.143670 0.973230
vt 0.170739 1.000000
vt 0.058301 0.000000
vt 0.029150 0.000000
vt 0.029151 1.000000
vt 0.058301 1.000000
vt 0.478901 0.453326
vt 0.508052 0.453326
vt 0.508052 -0.000000
vt 0.478901 -0.000000
vt 0.530956 0.511627
vt 0.503887 0.511627
vt 0.503887 0.540777
vt 0.530956 0.540777
vt 0.362299 0.973230
vt 0.391450 0.973230
vt 0.391450 -0.000000
vt 0.362299 -0.000000
vt 0.503887 0.540777
vt 0.476819 0.540777
vt 0.251944 1.000000
vt 0.279012 1.000000
vt 0.279012 -0.000000
vt 0.251944 0.026770
vt 0.449751 0.540777
vt 0.476819 0.540777
vt 0.449751 0.511627
vt 0.530956 0.453326
vt 0.558024 0.482477
vt 0.558024 0.453326
vt 0.674626 0.453326
vt 0.701694 0.453326
vt 0.701694 0.026455
vt 0.674626 -0.000000
vt 0.812049 0.853742
vt 0.841200 0.853742
vt 0.728762 0.453326
vt 0.728762 -0.000000
vt 0.170739 1.000000
vt 0.197807 1.000000
vt 0.197807 0.026770
vt 0.170739 -0.000000
vt 0.087451 0.000000
vt 0.058301 0.000000
vt 0.058301 1.000000
vt 0.087451 1.000000
vt 0.508052 0.453326
vt 0.537202 0.453326
vt 0.537202 -0.000000
vt 0.508052 -0.000000
vt 0.558024 0.511627
vt 0.558024 0.540777
vt 0.391450 0.973230
vt 0.420600 0.973230
vt 0.420600 -0.000000
vt 0.391450 -0.000000
vt 0.558024 0.511627
vt 0.306080 -0.000000
vt 0.279012 -0.000000
vt 0.279012 1.000000
vt 0.306080 0.973230
vt 0.503887 0.569928
vt 0.476819 0.569928
vt 0.449751 0.540777
vt 0.449751 0.569928
vt 0.755831 0.453326
vt 0.755831 -0.000000
vt 0.728762 0.026455
vt 0.812049 0.853742
vt 0.812049 0.426871
vt 0.782899 0.426871
vt 0.782899 0.853742
vt 0.782899 0.453326
vt 0.782899 0.026455
vt 0.306080 1.000000
vt 0.333149 0.973230
vt 0.333149 -0.000000
vt 0.116602 1.000000
vt 0.116602 -0.000000
vt 0.087451 -0.000000
vt 0.087451 1.000000
vt 0.537202 0.000000
vt 0.537202 0.453326
vt 0.566353 0.453326
vt 0.566353 0.000000
vt 0.530956 0.569928
vt 0.530956 0.540777
vt 0.420600 -0.000000
vt 0.420600 0.973230
vt 0.449751 0.973230
vt 0.449751 -0.000000
vt 0.530956 0.569928
vt 0.558024 0.569928
vt 0.558024 0.540777
vt 0.530956 0.540777
vt 0.224875 1.000000
vt 0.224875 0.026770
vt 0.197807 -0.000000
s 0
usemtl assets/materials/frame.material.xml
f 10/1/1 6/2/1 11/3/1 13/4/1
f 1/5/2 16/6/2 15/7/2 4/8/2
f 12/9/3 10/10/3 13/11/3 3/12/3
f 3/13/4 13/14/4 11/15/4 8/16/4
f 8/12/5 11/11/5 6/17/5 14/18/5
f 9/19/5 16/20/5 1/21/5 5/22/5
f 7/23/6 15/24/6 16/25/6 9/26/6
f 14/27/7 6/28/7 10/29/7 12/30/7
f 5/4/4 2/31/4 7/32/4 9/1/4
f 5/33/8 1/34/8 4/35/8 2/36/8
f 12/37/8 3/38/8 8/39/8 14/40/8
f 2/41/3 4/42/3 15/43/3 7/44/3
f 26/39/9 29/45/9 27/46/9 22/47/9
f 17/48/10 20/49/10 31/50/10 32/51/10
f 28/52/3 19/18/3 29/53/3 26/54/3
f 19/55/7 24/56/7 27/57/7 29/58/7
f 24/59/5 30/52/5 22/54/5 27/60/5
f 25/61/5 21/62/5 17/63/5 32/64/5
f 23/65/6 25/66/6 32/67/6 31/68/6
f 30/69/4 28/70/4 26/71/4 22/72/4
f 21/73/7 25/74/7 23/75/7 18/76/7
f 21/77/8 18/78/8 20/79/8 17/80/8
f 28/81/8 30/49/8 24/32/8 19/82/8
f 18/83/3 23/84/3 31/85/3 20/86/3
f 42/87/11 45/88/11 43/37/11 38/89/11
f 33/90/12 36/51/12 47/91/12 48/92/12
f 44/93/3 35/94/3 45/95/3 42/96/3
f 35/58/4 40/57/4 43/97/4 45/98/4
f 40/94/5 46/99/5 38/100/5 43/95/5
f 41/101/5 37/102/5 33/103/5 48/104/5
f 39/105/8 41/106/8 48/107/8 47/108/8
f 46/109/7 44/110/7 42/111/7 38/112/7
f 37/113/4 41/73/4 39/76/4 34/114/4
f 37/115/6 34/116/6 36/117/6 33/118/6
f 44/119/6 46/91/6 40/51/6 35/50/6
f 34/120/3 39/121/3 47/122/3 36/123/3
f 58/124/13 54/81/13 59/82/13 61/125/13
f 49/82/14 64/126/14 63/127/14 52/125/14
f 60/128/3 58/129/3 61/130/3 51/99/3
f 51/131/7 61/132/7 59/133/7 56/134/7
f 56/135/5 59/136/5 54/129/5 62/128/5
f 57/120/5 64/137/5 49/138/5 53/139/5
f 55/140/8 63/141/8 64/142/8 57/143/8
f 62/144/4 54/145/4 58/146/4 60/147/4
f 53/81/7 50/124/7 55/148/7 57/149/7
f 53/150/6 49/151/6 52/152/6 50/153/6
f 60/154/6 51/155/6 56/156/6 62/157/6
f 50/158/3 52/159/3 63/160/3 55/102/3
o Plane.001
v 0.525000 0.000000 1.050000
v 0.525000 -0.000000 -1.050000
v -0.525000 0.000000 1.050000
v -0.525000 -0.000000 -1.050000
vn -0.0000 1.0000 -0.0000
vt 0.000000 1.000000
vt 0.000000 -0.000000
vt 0.500000 -0.000000
vt 0.500000 1.000000
s 0
usemtl assets/materials/field.material.xml
f 65/161/15 66/162/15 68/163/15 67/164/15
o _box_collider
v 0.525276 -0.426730 -0.050314
v 0.525276 0.426730 -0.050314
v 0.525276 -0.426730 -0.982664
v 0.525276 0.426730 -0.982664
v 1.378735 -0.426730 -0.050314
v 1.378735 0.426730 -0.050314
v 1.378735 -0.426730 -0.982664
v 1.378735 0.426730 -0.982664
vn -1.0000 -0.0000 -0.0000
vn -0.0000 -0.0000 -1.0000
vn 1.0000 -0.0000 -0.0000
vn -0.0000 -0.0000 1.0000
vn -0.0000 -1.0000 -0.0000
vn -0.0000 1.0000 -0.0000
vt 0.375000 0.000000
vt 0.625000 0.000000
vt 0.625000 0.250000
vt 0.375000 0.250000
vt 0.625000 0.500000
vt 0.375000 0.500000
vt 0.625000 0.750000
vt 0.375000 0.750000
vt 0.625000 1.000000
vt 0.375000 1.000000
vt 0.125000 0.500000
vt 0.125000 0.750000
vt 0.875000 0.500000
vt 0.875000 0.750000
s 0
f 69/165/16 70/166/16 72/167/16 71/168/16
f 71/168/17 72/167/17 76/169/17 75/170/17
f 75/170/18 76/169/18 74/171/18 73/172/18
f 73/172/19 74/171/19 70/173/19 69/174/19
f 71/175/20 75/170/20 73/172/20 69/176/20
f 76/169/21 72/177/21 70/178/21 74/171/21
o _box_collider.001
v -1.378535 -0.426730 -0.050314
v -1.378535 0.426730 -0.050314
v -1.378535 -0.426730 -0.982664
v -1.378535 0.426730 -0.982664
v -0.525076 -0.426730 -0.050314
v -0.525076 0.426730 -0.050314
v -0.525076 -0.426730 -0.982664
v -0.525076 0.426730 -0.982664
vn -1.0000 -0.0000 -0.0000
vn -0.0000 -0.0000 -1.0000
vn 1.0000 -0.0000 -0.0000
vn -0.0000 -0.0000 1.0000
vn -0.0000 -1.0000 -0.0000
vn -0.0000 1.0000 -0.0000
vt 0.375000 0.000000
vt 0.625000 0.000000
vt 0.625000 0.250000
vt 0.375000 0.250000
vt 0.625000 0.500000
vt 0.375000 0.500000
vt 0.625000 0.750000
vt 0.375000 0.750000
vt 0.625000 1.000000
vt 0.375000 1.000000
vt 0.125000 0.500000
vt 0.125000 0.750000
vt 0.875000 0.500000
vt 0.875000 0.750000
s 0
f 77/179/22 78/180/22 80/181/22 79/182/22
f 79/182/23 80/181/23 84/183/23 83/184/23
f 83/184/24 84/183/24 82/185/24 81/186/24
f 81/186/25 82/185/25 78/187/25 77/188/25
f 79/189/26 83/184/26 81/186/26 77/190/26
f 84/183/27 80/191/27 78/192/27 82/185/27
o _box_collider.002
v 0.525276 -0.426730 0.982498
v 0.525276 0.426730 0.982498
v 0.525276 -0.426730 0.050147
v 0.525276 0.426730 0.050147
v 1.378735 -0.426730 0.982498
v 1.378735 0.426730 0.982498
v 1.378735 -0.426730 0.050147
v 1.378735 0.426730 0.050147
vn -1.0000 -0.0000 -0.0000
vn -0.0000 -0.0000 -1.0000
vn 1.0000 -0.0000 -0.0000
vn -0.0000 -0.0000 1.0000
vn -0.0000 -1.0000 -0.0000
vn -0.0000 1.0000 -0.0000
vt 0.375000 0.000000
vt 0.625000 0.000000
vt 0.625000 0.250000
vt 0.375000 0.250000
vt 0.625000 0.500000
vt 0.375000 0.500000
vt 0.625000 0.750000
vt 0.375000 0.750000
vt 0.625000 1.000000
vt 0.375000 1.000000
vt 0.125000 0.500000
vt 0.125000 0.750000
vt 0.875000 0.500000
vt 0.875000 0.750000
s 0
f 85/193/28 86/194/28 88/195/28 87/196/28
f 87/196/29 88/195/29 92/197/29 91/198/29
f 91/198/30 92/197/30 90/199/30 89/200/30
f 89/200/31 90/199/31 86/201/31 85/202/31
f 87/203/32 91/198/32 89/200/32 85/204/32
f 92/197/33 88/205/33 86/206/33 90/199/33
o _box_collider.003
v -1.378535 -0.426730 0.982498
v -1.378535 0.426730 0.982498
v -1.378535 -0.426730 0.050147
v -1.378535 0.426730 0.050147
v -0.525076 -0.426730 0.982498
v -0.525076 0.426730 0.982498
v -0.525076 -0.426730 0.050147
v -0.525076 0.426730 0.050147
vn -1.0000 -0.0000 -0.0000
vn -0.0000 -0.0000 -1.0000
vn 1.0000 -0.0000 -0.0000
vn -0.0000 -0.0000 1.0000
vn -0.0000 -1.0000 -0.0000
vn -0.0000 1.0000 -0.0000
vt 0.375000 0.000000
vt 0.625000 0.000000
vt 0.625000 0.250000
vt 0.375000 0.250000
vt 0.625000 0.500000
vt 0.375000 0.500000
vt 0.625000 0.750000
vt 0.375000 0.750000
vt 0.625000 1.000000
vt 0.375000 1.000000
vt 0.125000 0.500000
vt 0.125000 0.750000
vt 0.875000 0.500000
vt 0.875000 0.750000
s 0
f 93/207/34 94/208/34 96/209/34 95/210/34
f 95/210/35 96/209/35 100/211/35 99/212/35
f 99/212/36 100/211/36 98/213/36 97/214/36
f 97/214/37 98/213/37 94/215/37 93/216/37
f 95/217/38 99/212/38 97/214/38 93/218/38
f 100/211/39 96/219/39 94/220/39 98/213/39
o _box_collider.004
v -0.460042 -0.426730 -1.050004
v -0.460042 0.426730 -1.050004
v -0.460042 -0.426730 -1.982354
v -0.460042 0.426730 -1.982354
v -0.050016 -0.426730 -1.050004
v -0.050016 0.426730 -1.050004
v -0.050016 -0.426730 -1.982354
v -0.050016 0.426730 -1.982354
vn -1.0000 -0.0000 -0.0000
vn -0.0000 -0.0000 -1.0000
vn 1.0000 -0.0000 -0.0000
vn -0.0000 -0.0000 1.0000
vn -0.0000 -1.0000 -0.0000
vn -0.0000 1.0000 -0.0000
vt 0.375000 0.000000
vt 0.625000 0.000000
vt 0.625000 0.250000
vt 0.375000 0.250000
vt 0.625000 0.500000
vt 0.375000 0.500000
vt 0.625000 0.750000
vt 0.375000 0.750000
vt 0.625000 1.000000
vt 0.375000 1.000000
vt 0.125000 0.500000
vt 0.125000 0.750000
vt 0.875000 0.500000
vt 0.875000 0.750000
s 0
f 101/221/40 102/222/40 104/223/40 103/224/40
f 103/224/41 104/223/41 108/225/41 107/226/41
f 107/226/42 108/225/42 106/227/42 105/228/42
f 105/228/43 106/227/43 102/229/43 101/230/43
f 103/231/44 107/226/44 105/228/44 101/232/44
f 108/225/45 104/233/45 102/234/45 106/227/45
o _box_collider.005
v 0.050030 -0.426730 -1.050004
v 0.050030 0.426730 -1.050004
v 0.050030 -0.426730 -1.982354
v 0.050030 0.426730 -1.982354
v 0.460057 -0.426730 -1.050004
v 0.460057 0.426730 -1.050004
v 0.460057 -0.426730 -1.982354
v 0.460057 0.426730 -1.982354
vn -1.0000 -0.0000 -0.0000
vn -0.0000 -0.0000 -1.0000
vn 1.0000 -0.0000 -0.0000
vn -0.0000 -0.0000 1.0000
vn -0.0000 -1.0000 -0.0000
vn -0.0000 1.0000 -0.0000
vt 0.375000 0.000000
vt 0.625000 0.000000
vt 0.625000 0.250000
vt 0.375000 0.250000
vt 0.625000 0.500000
vt 0.375000 0.500000
vt 0.625000 0.750000
vt 0.375000 0.750000
vt 0.625000 1.000000
vt 0.375000 1.000000
vt 0.125000 0.500000
vt 0.125000 0.750000
vt 0.875000 0.500000
vt 0.875000 0.750000
s 0
f 109/235/46 110/236/46 112/237/46 111/238/46
f 111/238/47 112/237/47 116/239/47 115/240/47
f 115/240/48 116/239/48 114/241/48 113/242/48
f 113/242/49 114/241/49 110/243/49 109/244/49
f 111/245/50 115/240/50 113/242/50 109/246/50
f 116/239/51 112/247/51 110/248/51 114/241/51
o _box_collider.006
v -0.460042 -0.426730 1.982161
v -0.460042 0.426730 1.982161
v -0.460042 -0.426730 1.049811
v -0.460042 0.426730 1.049811
v -0.050016 -0.426730 1.982161
v -0.050016 0.426730 1.982161
v -0.050016 -0.426730 1.049811
v -0.050016 0.426730 1.049811
vn -1.0000 -0.0000 -0.0000
vn -0.0000 -0.0000 -1.0000
vn 1.0000 -0.0000 -0.0000
vn -0.0000 -0.0000 1.0000
vn -0.0000 -1.0000 -0.0000
vn -0.0000 1.0000 -0.0000
vt 0.375000 0.000000
vt 0.625000 0.000000
vt 0.625000 0.250000
vt 0.375000 0.250000
vt 0.625000 0.500000
vt 0.375000 0.500000
vt 0.625000 0.750000
vt 0.375000 0.750000
vt 0.625000 1.000000
vt 0.375000 1.000000
vt 0.125000 0.500000
vt 0.125000 0.750000
vt 0.875000 0.500000
vt 0.875000 0.750000
s 0
f 117/249/52 118/250/52 120/251/52 119/252/52
f 119/252/53 120/251/53 124/253/53 123/254/53
f 123/254/54 124/253/54 122/255/54 121/256/54
f 121/256/55 122/255/55 118/257/55 117/258/55
f 119/259/56 123/254/56 121/256/56 117/260/56
f 124/253/57 120/261/57 118/262/57 122/255/57
o _box_collider.007
v 0.050030 -0.426730 1.982161
v 0.050030 0.426730 1.982161
v 0.050030 -0.426730 1.049811
v 0.050030 0.426730 1.049811
v 0.460057 -0.426730 1.982161
v 0.460057 0.426730 1.982161
v 0.460057 -0.426730 1.049811
v 0.460057 0.426730 1.049811
vn -1.0000 -0.0000 -0.0000
vn -0.0000 -0.0000 -1.0000
vn 1.0000 -0.0000 -0.0000
vn -0.0000 -0.0000 1.0000
vn -0.0000 -1.0000 -0.0000
vn -0.0000 1.0000 -0.0000
vt 0.375000 0.000000
vt 0.625000 0.000000
vt 0.625000 0.250000
vt 0.375000 0.250000
vt 0.625000 0.500000
vt 0.375000 0.500000
vt 0.625000 0.750000
vt 0.375000 0.750000
vt 0.625000 1.000000
vt 0.375000 1.000000
vt 0.125000 0.500000
vt 0.125000 0.750000
vt 0.875000 0.500000
vt 0.875000 0.750000
s 0
f 125/263/58 126/264/58 128/265/58 127/266/58
f 127/266/59 128/265/59 132/267/59 131/268/59
f 131/268/60 132/267/60 130/269/60 129/270/60
f 129/270/61 130/269/61 126/271/61 125/272/61
f 127/273/62 131/268/62 129/270/62 125/274/62
f 132/267/63 128/275/63 126/276/63 130/269/63
o _box_collider.008
v -0.525083 -0.200000 1.050001
v -0.525083 0.000000 1.050001
v -0.525083 -0.200000 -1.050001
v -0.525083 0.000000 -1.050001
v 0.525083 -0.200000 1.050001
v 0.525083 0.000000 1.050001
v 0.525083 -0.200000 -1.050001
v 0.525083 0.000000 -1.050001
vn -1.0000 -0.0000 -0.0000
vn -0.0000 -0.0000 -1.0000
vn 1.0000 -0.0000 -0.0000
vn -0.0000 -0.0000 1.0000
vn -0.0000 -1.0000 -0.0000
vn -0.0000 1.0000 -0.0000
vt 0.375000 0.000000
vt 0.625000 0.000000
vt 0.625000 0.250000
vt 0.375000 0.250000
vt 0.625000 0.500000
vt 0.375000 0.500000
vt 0.625000 0.750000
vt 0.375000 0.750000
vt 0.625000 1.000000
vt 0.375000 1.000000
vt 0.125000 0.500000
vt 0.125000 0.750000
vt 0.875000 0.500000
vt 0.875000 0.750000
s 0
f 133/277/64 134/278/64 136/279/64 135/280/64
f 135/280/65 136/279/65 140/281/65 139/282/65
f 139/282/66 140/281/66 138/283/66 137/284/66
f 137/284/67 138/283/67 134/285/67 133/286/67
f 135/287/68 139/282/68 137/284/68 133/288/68
f 140/281/69 136/289/69 134/290/69 138/283/69
