# Blender 4.1.1
# www.blender.org
mtllib debug_box.mtl
o Cube
v 0.480000 0.480000 -0.480000
v 0.500010 0.500010 -0.500010
v 0.480000 -0.480000 -0.480000
v 0.500010 -0.500010 -0.500010
v 0.480000 0.480000 0.480000
v 0.500010 0.500010 0.500010
v 0.480000 -0.480000 0.480000
v 0.500010 -0.500010 0.500010
v -0.500010 0.500010 -0.500010
v -0.480000 0.480000 -0.480000
v -0.500010 -0.500010 -0.500010
v -0.480000 -0.480000 -0.480000
v -0.480000 0.480000 0.480000
v -0.500010 0.500010 0.500010
v -0.500010 -0.500010 0.500010
v -0.480000 -0.480000 0.480000
v 0.437056 0.480000 -0.437056
v 0.437056 0.500010 -0.437056
v -0.437056 0.480000 -0.437056
v -0.437056 0.500010 -0.437056
v -0.437056 0.480000 0.437056
v -0.437056 0.500010 0.437056
v 0.437056 0.480000 0.437056
v 0.437056 0.500010 0.437056
v 0.437056 -0.437056 0.480000
v 0.437056 -0.437056 0.500010
v 0.437056 0.437056 0.480000
v 0.437056 0.437056 0.500010
v -0.437056 0.437056 0.500010
v -0.437056 0.437056 0.480000
v -0.437056 -0.437056 0.500010
v -0.437056 -0.437056 0.480000
v -0.500010 -0.437056 0.437056
v -0.480000 -0.437056 0.437056
v -0.500010 0.437056 0.437056
v -0.480000 0.437056 0.437056
v -0.500010 0.437056 -0.437056
v -0.480000 0.437056 -0.437056
v -0.500010 -0.437056 -0.437056
v -0.480000 -0.437056 -0.437056
v -0.437056 -0.480000 -0.437056
v -0.437056 -0.500010 -0.437056
v 0.437056 -0.480000 -0.437056
v 0.437056 -0.500010 -0.437056
v 0.437056 -0.480000 0.437056
v 0.437056 -0.500010 0.437056
v -0.437056 -0.480000 0.437056
v -0.437056 -0.500010 0.437056
v 0.480000 -0.437056 -0.437056
v 0.500010 -0.437056 -0.437056
v 0.480000 0.437056 -0.437056
v 0.500010 0.437056 -0.437056
v 0.500010 0.437056 0.437056
v 0.480000 0.437056 0.437056
v 0.500010 -0.437056 0.437056
v 0.480000 -0.437056 0.437056
v -0.437056 -0.437056 -0.480000
v -0.437056 -0.437056 -0.500010
v -0.437056 0.437056 -0.480000
v -0.437056 0.437056 -0.500010
v 0.437056 0.437056 -0.500010
v 0.437056 0.437056 -0.480000
v 0.437056 -0.437056 -0.500010
v 0.437056 -0.437056 -0.480000
vn -0.0000 -0.0000 1.0000
vn -1.0000 -0.0000 -0.0000
vn 1.0000 -0.0000 -0.0000
vn -0.0000 -0.0000 -1.0000
vn -0.0000 1.0000 -0.0000
vn -0.0000 -1.0000 -0.0000
vt 0.859264 0.515736
vt 0.640736 0.515736
vt 0.640736 0.734264
vt 0.859264 0.734264
vt 0.609264 0.765736
vt 0.390736 0.765736
vt 0.390736 0.984264
vt 0.609264 0.984264
vt 0.390736 0.015736
vt 0.609264 0.015736
vt 0.390736 0.234264
vt 0.609264 0.234264
vt 0.359264 0.515736
vt 0.140736 0.515736
vt 0.140736 0.734264
vt 0.359264 0.734264
vt 0.609264 0.515736
vt 0.390736 0.515736
vt 0.390736 0.734264
vt 0.609264 0.734264
vt 0.609264 0.265736
vt 0.390736 0.265736
vt 0.390736 0.484264
vt 0.609264 0.484264
vt 0.625000 0.500000
vt 0.875000 0.500000
vt 0.875000 0.750000
vt 0.625000 0.750000
vt 0.375000 0.750000
vt 0.625000 1.000000
vt 0.375000 1.000000
vt 0.375000 0.000000
vt 0.625000 0.000000
vt 0.625000 0.250000
vt 0.375000 0.250000
vt 0.125000 0.500000
vt 0.375000 0.500000
vt 0.125000 0.750000
s 0
usemtl assets/materials/red_ball.material.xml
f 19/1/1 17/2/1 18/2/1 20/1/1
f 17/2/2 23/3/2 24/3/2 18/2/2
f 21/4/3 19/1/3 20/1/3 22/4/3
f 23/3/4 21/4/4 22/4/4 24/3/4
f 27/5/2 25/6/2 26/6/2 28/5/2
f 31/7/5 26/6/5 25/6/5 32/7/5
f 28/5/6 29/8/6 30/8/6 27/5/6
f 32/7/3 30/8/3 29/8/3 31/7/3
f 33/9/4 35/10/4 36/10/4 34/9/4
f 39/11/5 33/9/5 34/9/5 40/11/5
f 35/10/6 37/12/6 38/12/6 36/10/6
f 37/12/1 39/11/1 40/11/1 38/12/1
f 43/13/1 41/14/1 42/14/1 44/13/1
f 41/14/3 47/15/3 48/15/3 42/14/3
f 45/16/2 43/13/2 44/13/2 46/16/2
f 47/15/4 45/16/4 46/16/4 48/15/4
f 51/17/1 49/18/1 50/18/1 52/17/1
f 55/19/5 50/18/5 49/18/5 56/19/5
f 52/17/6 53/20/6 54/20/6 51/17/6
f 53/20/4 55/19/4 56/19/4 54/20/4
f 59/21/3 57/22/3 58/22/3 60/21/3
f 63/23/5 58/22/5 57/22/5 64/23/5
f 60/21/6 61/24/6 62/24/6 59/21/6
f 61/24/2 63/23/2 64/23/2 62/24/2
f 18/2/5 2/25/5 9/26/5 20/1/5
f 17/2/6 19/1/6 10/26/6 1/25/6
f 20/1/5 9/26/5 14/27/5 22/4/5
f 19/1/6 21/4/6 13/27/6 10/26/6
f 22/4/5 14/27/5 6/28/5 24/3/5
f 21/4/6 23/3/6 5/28/6 13/27/6
f 24/3/5 6/28/5 2/25/5 18/2/5
f 23/3/6 17/2/6 1/25/6 5/28/6
f 26/6/1 8/29/1 6/28/1 28/5/1
f 25/6/4 27/5/4 5/28/4 7/29/4
f 28/5/1 6/28/1 14/30/1 29/8/1
f 27/5/4 30/8/4 13/30/4 5/28/4
f 29/8/1 14/30/1 15/31/1 31/7/1
f 30/8/4 32/7/4 16/31/4 13/30/4
f 31/7/1 15/31/1 8/29/1 26/6/1
f 32/7/4 25/6/4 7/29/4 16/31/4
f 33/9/2 15/32/2 14/33/2 35/10/2
f 34/9/3 36/10/3 13/33/3 16/32/3
f 35/10/2 14/33/2 9/34/2 37/12/2
f 36/10/3 38/12/3 10/34/3 13/33/3
f 37/12/2 9/34/2 11/35/2 39/11/2
f 38/12/3 40/11/3 12/35/3 10/34/3
f 39/11/2 11/35/2 15/32/2 33/9/2
f 40/11/3 34/9/3 16/32/3 12/35/3
f 42/14/6 11/36/6 4/37/6 44/13/6
f 41/14/5 43/13/5 3/37/5 12/36/5
f 44/13/6 4/37/6 8/29/6 46/16/6
f 43/13/5 45/16/5 7/29/5 3/37/5
f 46/16/6 8/29/6 15/38/6 48/15/6
f 45/16/5 47/15/5 16/38/5 7/29/5
f 48/15/6 15/38/6 11/36/6 42/14/6
f 47/15/5 41/14/5 12/36/5 16/38/5
f 50/18/3 4/37/3 2/25/3 52/17/3
f 49/18/2 51/17/2 1/25/2 3/37/2
f 52/17/3 2/25/3 6/28/3 53/20/3
f 51/17/2 54/20/2 5/28/2 1/25/2
f 53/20/3 6/28/3 8/29/3 55/19/3
f 54/20/2 56/19/2 7/29/2 5/28/2
f 55/19/3 8/29/3 4/37/3 50/18/3
f 56/19/2 49/18/2 3/37/2 7/29/2
f 58/22/4 11/35/4 9/34/4 60/21/4
f 57/22/1 59/21/1 10/34/1 12/35/1
f 60/21/4 9/34/4 2/25/4 61/24/4
f 59/21/1 62/24/1 1/25/1 10/34/1
f 61/24/4 2/25/4 4/37/4 63/23/4
f 62/24/1 64/23/1 3/37/1 1/25/1
f 63/23/4 4/37/4 11/35/4 58/22/4
f 64/23/1 57/22/1 12/35/1 3/37/1
